<svg width="24" height="20" viewBox="0 0 24 20" fill="none" xmlns="http://www.w3.org/2000/svg">
<path d="M7.53902 19.5C16.5954 19.5 21.551 11.9956 21.551 5.49877C21.551 5.28765 21.551 5.07653 21.5414 4.8654C22.5018 4.17446 23.3373 3.30118 24 2.31275C23.1164 2.7062 22.1657 2.96531 21.1669 3.09006C22.1849 2.48548 22.9628 1.51624 23.3373 0.364665C22.3866 0.930856 21.3301 1.33391 20.2065 1.55463C19.3037 0.59498 18.0264 0 16.6146 0C13.8968 0 11.6879 2.20718 11.6879 4.92298C11.6879 5.30684 11.7359 5.6811 11.8127 6.04577C7.72149 5.84424 4.09124 3.87697 1.66146 0.902067C1.2389 1.6314 0.9988 2.47589 0.9988 3.37795C0.9988 5.08612 1.87275 6.59277 3.18848 7.47564C2.38175 7.44685 1.62305 7.22613 0.960384 6.86146C0.960384 6.88066 0.960384 6.89985 0.960384 6.92864C0.960384 9.30856 2.66026 11.3046 4.90756 11.7557C4.4946 11.8708 4.06242 11.9284 3.61104 11.9284C3.29412 11.9284 2.98679 11.8996 2.68908 11.842C3.31333 13.7997 5.13806 15.22 7.28932 15.2584C5.59904 16.5827 3.47659 17.3696 1.17167 17.3696C0.777912 17.3696 0.384154 17.3504 0 17.3024C2.17047 18.6843 4.76351 19.5 7.53902 19.5Z" fill="#6B7280"/>
</svg>
